#!OML:ASF H:\Dans Jumps\Project 1\Capture day 1\Session 1\subject.ASF
:FULLY-SPECIFIED
:DEGREES
422
root 0.286182 17.8087 -0.82038 9.74838 2.77584 -1.22793
lowerback -2.78897 -0.459189 -0.399922
upperback 2.2754 -0.645476 1.42015
thorax 3.92837 -0.353259 1.64845
lowerneck -11.4085 -0.48474 -1.85974
upperneck 35.2443 -0.604607 1.12785
head 13.8814 -0.351274 0.695154
rclavicle 5.41688e-015 -1.25234e-014
rhumerus -23.3702 -13.345 -82.2724
rradius 25.6148
rwrist 34.6407
rhand -23.1548 -28.0194
rfingers 7.12502
rthumb 3.29361 -57.9737
lclavicle 5.41688e-015 -1.25234e-014
lhumerus -28.5314 4.8006 84.8741
lradius 15.1928
lwrist 8.49659
lhand -24.4116 -7.43025
lfingers 7.12502
lthumb 2.07984 22.5394
rfemur -13.1588 -3.141 20.6161
rtibia 20.1305
rfoot -14.0645 0.0690797
rtoes 16.7665
lfemur -10.0146 6.71952 -17.7844
ltibia 15.5508
lfoot -10.5747 3.3529
ltoes 8.23099
423
root 0.284755 17.8087 -0.815373 9.76763 2.69456 -1.2187
lowerback -2.8245 -0.436407 -0.39256
upperback 2.27587 -0.615345 1.41463
thorax 3.94786 -0.338076 1.64028
lowerneck -11.4061 -0.484511 -1.84897
upperneck 35.2897 -0.615846 1.15048
head 13.9016 -0.351922 0.700992
rclavicle 2.78299e-015 -9.54166e-015
rhumerus -23.3496 -13.5969 -82.1645
rradius 25.5159
rwrist 34.7234
rhand -23.1293 -28.0195
rfingers 7.12502
rthumb 3.31822 -57.9735
lclavicle 2.78299e-015 -9.54166e-015
lhumerus -28.429 4.40517 85.2
lradius 15.5099
lwrist 9.09082
lhand -24.4699 -7.47845
lfingers 7.12502
lthumb 2.02358 22.4917
rfemur -13.192 -3.16006 20.6194
rtibia 20.1715
rfoot -14.0949 0.104004
rtoes 16.6743
lfemur -10.0169 6.69998 -17.7933
ltibia 15.5779
lfoot -10.5516 3.44516
ltoes 8.11763
424
root 0.283178 17.8099 -0.811486 9.78351 2.61393 -1.21104
lowerback -2.85094 -0.415248 -0.388047
upperback 2.27916 -0.58728 1.41003
thorax 3.96524 -0.324019 1.63461
lowerneck -11.399 -0.484627 -1.84241
upperneck 35.318 -0.628116 1.17755
head 13.9131 -0.352967 0.70909
rclavicle 3.57812e-015 -1.11319e-014
rhumerus -23.3496 -13.7916 -82.0743
rradius 25.4583
rwrist 34.7532
rhand -23.1093 -28.0083
rfingers 7.12502
rthumb 3.33755 -57.9619
lclavicle 3.57812e-015 -1.11319e-014
lhumerus -28.3378 3.92738 85.5565
lradius 15.8827
lwrist 9.80327
lhand -24.5072 -7.42256
lfingers 7.12502
lthumb 1.98755 22.5479
rfemur -13.2219 -3.16776 20.6236
rtibia 20.2051
rfoot -14.1026 0.132194
rtoes 16.5836
lfemur -10.0357 6.68457 -17.7965
ltibia 15.6344
lfoot -10.5172 3.51491
ltoes 7.96265
425
root 0.281506 17.8118 -0.80861 9.79589 2.53505 -1.20658
lowerback -2.86615 -0.39727 -0.383609
upperback 2.28354 -0.563501 1.40745
thorax 3.97756 -0.312109 1.63088
lowerneck -11.39 -0.484984 -1.84437
upperneck 35.3332 -0.640018 1.20881
head 13.9183 -0.354431 0.72034
rclavicle -4.87022e-015 6.16232e-015
rhumerus -23.3701 -13.9186 -82.0031
rradius 25.4383
rwrist 34.7472
rhand -23.0908 -27.986
rfingers 7.12502
rthumb 3.35538 -57.9393
lclavicle -4.87022e-015 6.16232e-015
lhumerus -28.2588 3.38149 85.9349
lradius 16.2986
lwrist 10.5938
lhand -24.5229 -7.27931
lfingers 7.12502
lthumb 1.97232 22.6913
rfemur -13.2464 -3.15571 20.6288
rtibia 20.2301
rfoot -14.0916 0.152364
rtoes 16.55
lfemur -10.069 6.68024 -17.7936
ltibia 15.7147
lfoot -10.4795 3.55875
ltoes 7.80815
426
root 0.27984 17.8147 -0.80645 9.80647 2.45987 -1.2038
lowerback -2.87587 -0.382828 -0.378181
upperback 2.28927 -0.544522 1.40594
thorax 3.98834 -0.302575 1.62742
lowerneck -11.3784 -0.485375 -1.85246
upperneck 35.3337 -0.650265 1.23982
head 13.9162 -0.356022 0.732706
rclavicle 3.97569e-016 -9.93923e-016
rhumerus -23.4055 -13.9761 -81.9526
rradius 25.448
rwrist 34.7065
rhand -23.0786 -27.9571
rfingers 7.12502
rthumb 3.36724 -57.9102
lclavicle 3.97569e-016 -9.93923e-016
lhumerus -28.1856 2.79643 86.3208
lradius 16.7358
lwrist 11.3961
lhand -24.5093 -7.12535
lfingers 7.12502
lthumb 1.98552 22.8452
rfemur -13.2694 -3.13787 20.6347
rtibia 20.2473
rfoot -14.0653 0.168986
rtoes 16.5231
lfemur -10.1124 6.6877 -17.7873
ltibia 15.8097
lfoot -10.4418 3.57659
ltoes 7.66622
427
root 0.278261 17.8181 -0.804906 9.81726 2.3926 -1.1991
lowerback -2.88174 -0.371467 -0.370743
upperback 2.294 -0.529633 1.40196
thorax 3.99598 -0.29496 1.62004
lowerneck -11.3667 -0.487734 -1.86127
upperneck 35.3253 -0.662283 1.26825
head 13.9101 -0.358806 0.743826
rclavicle -5.81445e-015 -5.56597e-015
rhumerus -23.4539 -13.9706 -81.923
rradius 25.4764
rwrist 34.6401
rhand -23.0676 -27.9286
rfingers 7.12502
rthumb 3.37784 -57.8816
lclavicle -5.81445e-015 -5.56597e-015
lhumerus -28.1202 2.16503 86.7084
lradius 17.179
lwrist 12.1857
lhand -24.4739 -6.98177
lfingers 7.12502
lthumb 2.0197 22.9884
rfemur -13.2894 -3.10733 20.6353
rtibia 20.2569
rfoot -14.0307 0.181978
rtoes 16.5831
lfemur -10.1641 6.71105 -17.7828
ltibia 15.9109
lfoot -10.4084 3.56429
ltoes 7.54637
428
root 0.276738 17.8217 -0.803813 9.82754 2.33201 -1.19171
lowerback -2.88522 -0.364251 -0.362926
upperback 2.29851 -0.52023 1.39643
thorax 4.00218 -0.290031 1.61053
lowerneck -11.3618 -0.489727 -1.87117
upperneck 35.3131 -0.671206 1.29069
head 13.9038 -0.361186 0.753151
rclavicle 3.13086e-015 8.54774e-015
rhumerus -23.5099 -13.9 -81.9143
rradius 25.5195
rwrist 34.5527
rhand -23.0605 -27.9072
rfingers 7.12502
rthumb 3.38466 -57.8601
lclavicle 3.13086e-015 8.54774e-015
lhumerus -28.0588 1.51694 87.0876
lradius 17.6038
lwrist 12.9161
lhand -24.466 -7.0172
lfingers 7.12502
lthumb 2.02734 22.9529
rfemur -13.3071 -3.0718 20.6316
rtibia 20.2622
rfoot -13.993 0.191148
rtoes 16.6884
lfemur -10.2163 6.74324 -17.781
ltibia 16.0078
lfoot -10.3797 3.5329
ltoes 7.47337
429
root 0.275376 17.8251 -0.802779 9.8331 2.27902 -1.18177
lowerback -2.88686 -0.360012 -0.350824
upperback 2.30163 -0.514834 1.38695
thorax 4.00596 -0.286895 1.59428
lowerneck -11.3547 -0.493023 -1.88136
upperneck 35.2987 -0.680923 1.31009
head 13.896 -0.364364 0.761158
rclavicle -3.8266e-015 -3.77691e-015
rhumerus -23.5797 -13.77 -81.9262
rradius 25.5752
rwrist 34.4393
rhand -23.0473 -27.8963
rfingers 7.12502
rthumb 3.39739 -57.849
lclavicle -3.8266e-015 -3.77691e-015
lhumerus -28.0067 0.849047 87.4546
lradius 18.012
lwrist 13.5857
lhand -24.4743 -7.17915
lfingers 7.12502
lthumb 2.01931 22.791
rfemur -13.3164 -3.04877 20.6246
rtibia 20.2641
rfoot -13.9605 0.207985
rtoes 16.8048
lfemur -10.26 6.78031 -17.7818
ltibia 16.0969
lfoot -10.357 3.48999
ltoes 7.42631
430
root 0.274187 17.828 -0.801931 9.83658 2.23191 -1.16342
lowerback -2.88741 -0.359549 -0.341132
upperback 2.30311 -0.514179 1.37297
thorax 4.00753 -0.286097 1.57443
lowerneck -11.3573 -0.493737 -1.88847
upperneck 35.2914 -0.684874 1.32209
head 13.8934 -0.365629 0.76655
rclavicle 5.26779e-015 -6.36111e-015
rhumerus -23.6576 -13.5836 -81.9568
rradius 25.6407
rwrist 34.3165
rhand -23.0342 -27.895
rfingers 7.12502
rthumb 3.41008 -57.8474
lclavicle 5.26779e-015 -6.36111e-015
lhumerus -27.9579 0.195799 87.7978
lradius 18.3995
lwrist 14.1609
lhand -24.4725 -7.40075
lfingers 7.12502
lthumb 2.02106 22.5694
rfemur -13.3223 -3.03638 20.6092
rtibia 20.2647
rfoot -13.9342 0.22256
rtoes 16.8957
lfemur -10.2966 6.81852 -17.793
ltibia 16.1767
lfoot -10.3402 3.44446
ltoes 7.39452
431
root 0.273228 17.8303 -0.801137 9.83498 2.18925 -1.14089
lowerback -2.88694 -0.362471 -0.329428
upperback 2.30374 -0.518028 1.35634
thorax 4.00773 -0.287431 1.55044
lowerneck -11.366 -0.490683 -1.89099
upperneck 35.2908 -0.680197 1.32224
head 13.895 -0.364132 0.767691
rclavicle 2.38542e-015 -1.2921e-014
rhumerus -23.7431 -13.3518 -82.0022
rradius 25.7126
rwrist 34.1933
rhand -23.0235 -27.8965
rfingers 7.12502
rthumb 3.42037 -57.8488
lclavicle 2.38542e-015 -1.2921e-014
lhumerus -27.9144 -0.444389 88.1202
lradius 18.776
lwrist 14.662
lhand -24.4438 -7.58212
lfingers 7.12502
lthumb 2.04873 22.3878
rfemur -13.3214 -3.03878 20.5901
rtibia 20.2654
rfoot -13.9192 0.237478
rtoes 16.9416
lfemur -10.3228 6.85853 -17.8101
ltibia 16.2485
lfoot -10.3308 3.40055
ltoes 7.37387
432
root 0.272463 17.8315 -0.800596 9.83107 2.14923 -1.11801
lowerback -2.88617 -0.367016 -0.312874
upperback 2.30128 -0.524177 1.33804
thorax 4.00456 -0.289717 1.52186
lowerneck -11.3757 -0.484277 -1.88836
upperneck 35.2942 -0.668103 1.31165
head 13.8984 -0.360174 0.764724
rclavicle 4.07509e-015 -1.05356e-014
rhumerus -23.8375 -13.0977 -82.0562
rradius 25.7898
rwrist 34.0791
rhand -23.0173 -27.8898
rfingers 7.12502
rthumb 3.42639 -57.842
lclavicle 4.07509e-015 -1.05356e-014
lhumerus -27.8727 -1.05706 88.4165
lradius 19.1383
lwrist 15.0832
lhand -24.3761 -7.66606
lfingers 7.12502
lthumb 2.11416 22.3032
rfemur -13.3189 -3.0489 20.5719
rtibia 20.2673
rfoot -13.9169 0.246983
rtoes 16.9444
lfemur -10.3435 6.90068 -17.8299
ltibia 16.3148
lfoot -10.3256 3.36371
ltoes 7.31675
433
root 0.271811 17.8319 -0.80041 9.8244 2.11003 -1.09654
lowerback -2.88531 -0.37327 -0.293073
upperback 2.29715 -0.53277 1.32051
thorax 3.99965 -0.293127 1.49211
lowerneck -11.3831 -0.474491 -1.88394
upperneck 35.297 -0.648062 1.29131
head 13.9008 -0.353837 0.758692
rclavicle -4.96962e-017 -3.37934e-015
rhumerus -23.9349 -12.8322 -82.1148
rradius 25.8687
rwrist 33.9765
rhand -23.0126 -27.875
rfingers 7.12502
rthumb 3.43089 -57.8271
lclavicle -4.96962e-017 -3.37934e-015
lhumerus -27.8279 -1.63321 88.688
lradius 19.4847
lwrist 15.4401
lhand -24.271 -7.66101
lfingers 7.12502
lthumb 2.21567 22.3072
rfemur -13.3145 -3.0553 20.5561
rtibia 20.2691
rfoot -13.9255 0.243547
rtoes 16.923
lfemur -10.3621 6.94673 -17.8505
ltibia 16.3804
lfoot -10.3311 3.33537
ltoes 7.25788
434
root 0.271333 17.8313 -0.800437 9.81623 2.07218 -1.07946
lowerback -2.88959 -0.380202 -0.266585
upperback 2.29279 -0.54267 1.30481
thorax 3.99738 -0.297038 1.46038
lowerneck -11.3862 -0.461996 -1.87904
upperneck 35.2937 -0.62121 1.26271
head 13.8994 -0.345565 0.750217
rclavicle 1.78906e-015 -5.56597e-015
rhumerus -24.0329 -12.5704 -82.1734
rradius 25.9495
rwrist 33.8795
rhand -23.0106 -27.8541
rfingers 7.12502
rthumb 3.43285 -57.8062
lclavicle 1.78906e-015 -5.56597e-015
lhumerus -27.7724 -2.16714 88.9356
lradius 19.8113
lwrist 15.746
lhand -24.1552 -7.5749
lfingers 7.12502
lthumb 2.32752 22.3922
rfemur -13.3087 -3.05587 20.5449
rtibia 20.2709
rfoot -13.9462 0.231101
rtoes 16.915
lfemur -10.3805 6.99938 -17.8694
ltibia 16.4471
lfoot -10.3486 3.31448
ltoes 7.20058
